<?xml version="1.0" standalone="no"?>
<!DOCTYPE svg PUBLIC "-//W3C//DTD SVG 20010904//EN"
 "http://www.w3.org/TR/2001/REC-SVG-20010904/DTD/svg10.dtd">
<svg version="1.0" xmlns="http://www.w3.org/2000/svg"
 width="1000.000000pt" height="1000.000000pt" viewBox="0 0 1000.000000 1000.000000"
 preserveAspectRatio="xMidYMid meet">

<g transform="translate(0.000000,1000.000000) scale(0.100000,-0.100000)"
fill="#000000" stroke="none">
<path d="M4625 9039 c-1326 -131 -2483 -876 -3145 -2024 -166 -288 -326 -679
-399 -975 -36 -145 -8 -130 -246 -130 -219 0 -237 -3 -282 -52 -54 -58 -53
-35 -53 -863 0 -831 -2 -792 54 -853 44 -49 62 -52 281 -52 238 0 210 15 246
-130 98 -397 302 -847 553 -1220 691 -1026 1792 -1674 3025 -1781 179 -15 686
-6 841 15 266 38 520 94 731 162 1250 402 2226 1374 2627 2614 22 69 50 163
61 210 36 145 8 130 246 130 219 0 237 3 281 52 56 61 54 22 54 853 0 828 1
805 -53 863 -45 49 -63 52 -282 52 -238 0 -210 -15 -246 130 -11 47 -39 141
-61 210 -341 1054 -1109 1931 -2108 2408 -391 187 -781 302 -1250 368 -134 19
-728 28 -875 13z m755 -535 c558 -58 1089 -250 1570 -569 210 -140 346 -251
531 -435 355 -354 611 -739 794 -1195 53 -131 125 -352 125 -382 0 -11 -26
-13 -146 -11 l-146 3 -33 100 c-264 807 -858 1494 -1625 1880 -330 166 -684
272 -1068 321 -187 24 -585 24 -767 0 -387 -50 -730 -153 -1056 -316 -783
-391 -1369 -1072 -1644 -1907 l-27 -83 -144 0 c-134 0 -144 1 -144 19 0 28 74
255 126 382 550 1366 1891 2250 3354 2212 85 -2 220 -11 300 -19z m65 -414
c1033 -154 1918 -803 2366 -1735 66 -138 169 -399 169 -429 0 -15 -272 -16
-2980 -16 -2656 0 -2980 2 -2980 15 0 33 96 279 164 420 192 397 449 735 771
1012 498 430 1091 684 1751 752 161 17 570 6 739 -19z m3898 -2301 c12 -7 25
-17 29 -23 4 -6 8 -351 8 -766 0 -415 -4 -760 -8 -766 -4 -6 -17 -16 -29 -23
-16 -8 -1109 -11 -4352 -11 -4318 0 -4331 0 -4351 20 -20 20 -20 33 -20 780 0
747 0 760 20 780 20 20 33 20 4351 20 3243 0 4336 -3 4352 -11z m-7428 -1781
c174 -530 491 -1025 890 -1389 512 -467 1109 -743 1810 -836 179 -23 589 -23
770 1 728 95 1359 397 1869 895 381 374 645 789 812 1281 l43 125 145 3 c120
2 146 0 146 -11 0 -30 -72 -251 -125 -382 -134 -334 -320 -648 -552 -934 -113
-139 -370 -394 -508 -504 -546 -437 -1166 -691 -1875 -768 -167 -18 -543 -16
-725 5 -1297 147 -2403 987 -2889 2195 -52 127 -126 354 -126 382 0 18 10 19
144 19 l144 0 27 -82z m6065 66 c0 -35 -107 -300 -185 -459 -82 -167 -218
-387 -318 -515 -440 -562 -1040 -956 -1712 -1125 -291 -73 -433 -90 -765 -90
-248 0 -305 3 -440 24 -1052 158 -1921 799 -2380 1753 -65 136 -160 381 -160
413 0 13 324 15 2980 15 2708 0 2980 -1 2980 -16z"/>
<path d="M4953 7647 l-41 -83 -91 -13 c-50 -8 -91 -17 -91 -20 0 -4 27 -33 60
-66 67 -66 68 -72 49 -182 -6 -35 -9 -66 -6 -69 3 -3 41 13 86 35 l81 41 81
-41 c45 -22 83 -39 85 -37 2 2 -2 45 -8 96 l-12 92 64 65 c35 35 62 66 59 68
-2 2 -38 9 -79 16 -41 7 -82 14 -91 17 -8 2 -33 40 -54 84 -21 44 -42 80 -45
80 -3 0 -24 -37 -47 -83z"/>
<path d="M3532 6878 c-17 -17 -15 -64 4 -82 14 -14 160 -16 1464 -16 1304 0
1450 2 1464 16 19 18 21 65 4 82 -17 17 -2919 17 -2936 0z"/>
<path d="M2820 6410 c-24 -24 -25 -49 -6 -76 14 -19 49 -19 2180 -22 2157 -2
2166 -2 2186 18 25 25 25 55 0 80 -20 20 -33 20 -2180 20 -2147 0 -2160 0
-2180 -20z"/>
<path d="M2960 5427 c-98 -28 -154 -81 -193 -183 -19 -52 -22 -78 -22 -234 0
-197 11 -252 67 -336 24 -36 49 -57 92 -79 55 -28 67 -30 166 -30 99 0 111 2
165 30 32 17 71 46 87 65 74 93 107 314 74 501 -25 137 -74 211 -166 252 -56
25 -204 33 -270 14z m175 -231 c31 -31 38 -83 34 -251 -4 -136 -4 -137 -32
-161 -37 -31 -87 -32 -123 -1 -25 22 -28 32 -34 118 -12 153 0 269 31 300 28
28 93 26 124 -5z"/>
<path d="M4570 5431 c-113 -35 -179 -128 -180 -251 0 -36 5 -82 10 -102 15
-54 84 -122 174 -171 94 -51 124 -84 107 -116 -18 -32 -54 -35 -157 -11 -53
12 -97 20 -98 18 -2 -1 -6 -47 -10 -100 l-6 -96 32 -11 c62 -20 183 -33 250
-28 139 12 217 88 234 230 15 125 -39 220 -157 281 -139 72 -167 107 -114 142
23 15 32 15 122 0 53 -9 98 -14 100 -12 9 8 31 201 24 208 -18 20 -278 35
-331 19z"/>
<path d="M5753 5424 c-143 -44 -213 -183 -213 -425 0 -137 10 -200 46 -280 46
-102 115 -147 239 -156 68 -5 200 15 231 35 9 5 7 31 -6 97 -19 102 -4 93
-133 79 -58 -6 -70 -4 -88 12 -39 34 -49 76 -49 201 0 188 21 229 114 226 28
-1 70 -8 94 -17 23 -8 42 -14 42 -12 0 5 30 167 35 193 4 18 -3 24 -43 38 -68
24 -204 29 -269 9z"/>
<path d="M2146 5378 c-3 -29 -7 -77 -9 -105 l-4 -53 83 0 84 0 2 -322 3 -323
115 0 115 0 3 323 2 322 80 0 80 0 0 53 c0 28 3 76 6 105 l7 52 -281 0 -281 0
-5 -52z"/>
<path d="M3500 5001 l0 -431 115 0 115 0 0 139 0 138 73 6 c103 7 156 26 197
67 47 47 65 111 65 225 -1 145 -37 211 -137 256 -48 20 -72 23 -240 27 l-188
4 0 -431z m314 207 c20 -28 22 -146 3 -172 -7 -10 -28 -18 -47 -19 l-35 -2 -3
108 -3 107 35 0 c25 0 39 -7 50 -22z"/>
<path d="M5010 5000 l0 -430 229 0 228 0 7 46 c3 26 6 71 6 100 l0 54 -120 0
-121 0 3 68 3 67 98 3 97 3 0 89 0 90 -100 0 -101 0 3 63 3 62 111 3 111 3 7
46 c3 25 6 72 6 104 l0 59 -235 0 -235 0 0 -430z"/>
<path d="M6130 5427 c-3 -3 -4 -197 -2 -431 l2 -427 113 3 112 3 3 153 c3 200
16 202 67 15 21 -76 42 -146 47 -155 8 -16 24 -18 128 -18 90 0 120 3 120 13
0 6 -25 89 -54 182 l-54 170 28 30 c52 56 64 92 65 190 0 143 -45 225 -142
256 -38 11 -423 26 -433 16z m301 -226 c20 -16 24 -28 24 -79 0 -70 -14 -92
-61 -92 l-34 0 0 95 c0 93 0 95 24 95 13 0 34 -9 47 -19z"/>
<path d="M6805 5418 c-3 -7 -4 -200 -3 -428 l3 -415 227 -3 226 -2 6 27 c3 16
6 60 8 98 l3 70 -117 3 -118 3 0 69 0 70 95 0 95 0 0 90 0 90 -95 0 -95 0 0
65 0 65 109 0 c127 0 118 -9 123 120 l3 85 -233 3 c-181 2 -234 0 -237 -10z"/>
<path d="M7307 5423 c-3 -5 -8 -52 -12 -105 l-7 -98 86 0 86 0 0 -325 0 -325
115 0 115 0 0 325 0 325 79 0 78 0 7 46 c3 26 6 73 6 105 l0 59 -274 0 c-151
0 -277 -3 -279 -7z"/>
<path d="M1386 5177 l-46 -85 -87 -13 c-49 -7 -90 -14 -92 -16 -3 -2 25 -34
61 -71 l66 -67 -13 -90 c-8 -49 -12 -91 -11 -93 2 -2 40 15 85 37 l81 41 81
-41 c45 -22 83 -38 86 -35 3 3 0 44 -7 91 l-12 87 29 31 c66 71 93 102 93 108
0 3 -40 12 -88 19 l-88 12 -46 85 -45 85 -47 -85z"/>
<path d="M8521 5176 l-45 -83 -85 -13 c-91 -13 -108 -19 -95 -29 5 -4 35 -34
68 -68 l58 -61 -12 -87 c-7 -47 -10 -88 -7 -91 3 -3 41 13 86 35 l81 41 81
-41 c45 -22 82 -39 84 -37 1 2 -3 44 -11 93 l-13 90 66 67 c37 37 65 69 62 71
-2 2 -43 9 -92 16 l-87 13 -46 84 c-25 46 -46 84 -47 84 -1 0 -22 -38 -46 -84z"/>
<path d="M2833 3680 c-30 -12 -39 -54 -19 -85 l16 -25 2170 0 2170 0 16 25
c21 33 11 73 -22 85 -33 13 -4300 12 -4331 0z"/>
<path d="M3536 3204 c-19 -18 -21 -65 -4 -82 17 -17 2919 -17 2936 0 18 18 14
63 -6 81 -17 16 -133 17 -1465 17 -1301 0 -1447 -2 -1461 -16z"/>
<path d="M4953 2706 l-42 -84 -86 -13 c-47 -7 -87 -15 -89 -18 -2 -3 23 -35
55 -70 64 -69 66 -74 49 -180 -6 -35 -9 -65 -6 -68 2 -2 40 14 85 36 l81 41
81 -41 c45 -22 83 -38 85 -36 3 3 0 33 -6 68 -17 106 -15 110 50 182 33 36 57
68 53 70 -5 2 -45 10 -91 17 l-83 13 -42 83 c-23 46 -44 84 -47 84 -3 0 -24
-38 -47 -84z"/>
<path d="M160 2336 c0 -24 5 -36 14 -36 8 0 20 -2 28 -5 8 -3 18 6 25 26 14
37 38 34 38 -4 -1 -15 3 -27 7 -27 16 0 21 31 9 56 -15 33 -51 29 -69 -9 -14
-29 -32 -28 -32 3 0 10 -4 22 -10 25 -6 4 -10 -8 -10 -29z"/>
<path d="M160 2236 c0 -24 5 -36 14 -36 8 0 20 -2 28 -5 8 -3 18 6 25 26 14
37 38 34 38 -4 -1 -15 3 -27 7 -27 16 0 21 31 9 56 -15 33 -51 29 -69 -9 -14
-29 -32 -28 -32 3 0 10 -4 22 -10 25 -6 4 -10 -8 -10 -29z"/>
<path d="M177 2152 c-22 -24 -21 -35 1 -55 25 -22 75 -21 95 1 23 25 21 38 -5
56 -30 21 -71 20 -91 -2z m77 -8 c24 -9 19 -33 -8 -40 -31 -7 -66 3 -66 21 0
21 41 32 74 19z"/>
<path d="M226 2051 c-3 -4 -17 -6 -30 -4 -20 4 -26 0 -31 -20 -7 -26 0 -47 14
-47 5 0 6 11 3 25 -3 18 0 25 12 25 9 0 16 -7 16 -15 0 -22 17 -18 23 6 8 29
32 18 32 -14 -1 -30 12 -36 22 -11 14 37 -41 87 -61 55z"/>
<path d="M235 1950 c-3 -5 -22 -7 -41 -4 -47 7 -46 -17 3 -51 47 -32 63 -32
63 0 0 16 6 25 15 25 8 0 15 7 15 16 0 10 -6 14 -15 10 -8 -3 -15 -1 -15 4 0
13 -17 13 -25 0z m-6 -29 c7 -5 12 -14 9 -21 -2 -8 -11 -5 -28 9 -17 14 -20
20 -10 21 8 0 21 -4 29 -9z"/>
<path d="M176 1834 c-19 -18 -20 -28 -6 -55 19 -35 70 -17 70 26 1 18 3 17 18
-7 17 -29 32 -36 32 -17 0 18 -57 69 -79 69 -11 0 -27 -7 -35 -16z m42 -26
c-2 -12 -9 -23 -15 -26 -19 -6 -29 28 -12 39 23 14 31 10 27 -13z"/>
<path d="M235 1731 c-3 -5 -21 -8 -40 -5 -48 6 -46 -17 2 -51 47 -32 63 -32
63 0 0 16 6 25 15 25 8 0 15 7 15 16 0 8 -4 13 -9 9 -5 -3 -12 -1 -16 5 -8 13
-22 13 -30 1z m2 -36 c9 -25 -2 -27 -28 -6 l-24 20 23 1 c12 0 25 -7 29 -15z"/>
<path d="M235 1620 c-4 -6 -16 -8 -26 -5 -35 11 -69 -42 -39 -60 20 -12 93
-15 107 -4 18 15 16 44 -3 63 -18 19 -30 20 -39 6z m-27 -37 c-4 -22 -22 -20
-26 1 -2 10 3 16 13 16 10 0 15 -7 13 -17z m60 0 c-2 -10 -10 -18 -18 -18 -8
0 -16 8 -18 18 -2 12 3 17 18 17 15 0 20 -5 18 -17z"/>
<path d="M160 1502 c0 -5 7 -17 15 -28 13 -17 14 -17 15 -1 0 14 9 17 50 17
28 0 50 5 50 10 0 6 -28 10 -65 10 -36 0 -65 -4 -65 -8z"/>
<path d="M196 1451 c-4 -6 -12 -9 -17 -6 -5 4 -9 2 -9 -4 0 -5 6 -12 13 -15 9
-5 9 -7 0 -12 -10 -4 -9 -9 2 -20 8 -9 20 -12 26 -8 6 3 14 1 18 -5 5 -8 15
-9 31 -3 19 7 21 10 7 15 -23 9 -22 28 1 20 12 -4 11 0 -7 17 -17 17 -25 20
-31 10 -6 -9 -10 -8 -17 5 -7 12 -12 14 -17 6z m39 -41 c-3 -5 -10 -10 -16
-10 -5 0 -9 5 -9 10 0 6 7 10 16 10 8 0 12 -4 9 -10z"/>
<path d="M140 1280 c0 -6 38 -10 95 -10 57 0 95 4 95 10 0 6 -38 10 -95 10
-57 0 -95 -4 -95 -10z"/>
<path d="M261 1189 c-22 -18 -25 -19 -42 -3 -11 10 -22 14 -27 10 -4 -4 4 -16
17 -27 l23 -19 -46 0 c-34 0 -46 -4 -46 -15 0 -12 15 -15 75 -15 60 0 75 3 75
15 0 9 -9 15 -22 15 l-23 0 24 19 c13 10 22 23 20 29 -2 6 -14 3 -28 -9z"/>
<path d="M190 1081 c0 -27 27 -51 55 -51 24 0 45 25 45 54 0 25 -18 19 -22 -6
-2 -17 -10 -23 -28 -23 -18 0 -26 6 -28 23 -4 27 -22 30 -22 3z"/>
<path d="M206 994 c-19 -18 -20 -28 -6 -55 21 -39 90 -16 90 30 0 16 -30 41
-50 41 -10 0 -26 -7 -34 -16z m59 -29 c0 -22 -31 -33 -47 -17 -17 17 -1 44 24
40 15 -2 23 -10 23 -23z"/>
<path d="M190 900 c0 -5 -7 -10 -15 -10 -8 0 -15 -4 -15 -10 0 -5 6 -10 14
-10 8 0 17 -6 20 -12 5 -10 7 -10 12 0 3 6 21 12 40 12 34 0 56 22 39 38 -4 4
-10 1 -12 -5 -5 -15 -63 -18 -63 -3 0 6 -4 10 -10 10 -5 0 -10 -4 -10 -10z"/>
<path d="M212 810 c-19 -34 -35 -34 -40 -2 -5 30 -22 28 -22 -2 0 -50 54 -61
77 -16 17 34 38 32 38 -3 -1 -32 18 -31 23 2 8 53 -49 69 -76 21z"/>
<path d="M200 675 c-22 -26 3 -65 40 -65 35 0 58 36 45 67 -7 16 -9 15 -13 -7
-6 -40 -22 -48 -22 -12 0 25 -4 32 -19 32 -10 0 -24 -7 -31 -15z m30 -26 c0
-11 -4 -17 -10 -14 -5 3 -10 13 -10 21 0 8 5 14 10 14 6 0 10 -9 10 -21z"/>
<path d="M197 561 c-8 -22 -18 -31 -34 -31 -14 0 -23 -6 -23 -15 0 -23 138
-22 147 2 10 26 -19 68 -50 71 -24 3 -30 -2 -40 -27z m57 3 c28 -11 18 -34
-14 -34 -18 0 -30 5 -30 13 0 25 15 32 44 21z"/>
<path d="M206 464 c-19 -18 -20 -28 -6 -55 21 -39 90 -16 90 30 0 16 -30 41
-50 41 -10 0 -26 -7 -34 -16z m59 -29 c0 -22 -31 -33 -47 -17 -17 17 -1 44 24
40 15 -2 23 -10 23 -23z"/>
<path d="M140 350 c0 -5 11 -10 25 -10 15 0 25 -6 25 -14 0 -45 73 -62 92 -22
20 45 6 56 -72 56 -40 0 -70 -4 -70 -10z m128 -27 c-2 -12 -12 -18 -28 -18
-16 0 -26 6 -28 18 -3 13 3 17 28 17 25 0 31 -4 28 -17z"/>
<path d="M220 246 c-36 -13 -66 -29 -68 -37 -1 -9 20 -21 68 -35 38 -12 70
-17 70 -12 0 6 -9 12 -20 15 -14 4 -20 14 -20 34 0 22 5 29 20 29 11 0 20 7
20 15 0 8 -1 15 -2 14 -2 0 -32 -11 -68 -23z m8 -51 c-7 -7 -48 7 -48 15 0 15
45 16 48 2 2 -8 2 -15 0 -17z"/>
</g>
</svg>
