<?xml version="1.0" standalone="no"?>
<!DOCTYPE svg PUBLIC "-//W3C//DTD SVG 20010904//EN"
 "http://www.w3.org/TR/2001/REC-SVG-20010904/DTD/svg10.dtd">
<svg version="1.0" xmlns="http://www.w3.org/2000/svg"
 width="512.000000pt" height="512.000000pt" viewBox="0 0 512.000000 512.000000"
 preserveAspectRatio="xMidYMid meet">

<g transform="translate(0.000000,512.000000) scale(0.100000,-0.100000)"
fill="#000000" stroke="none">
<path d="M2450 4935 c-158 -45 -279 -177 -309 -339 -14 -74 -14 -231 -1 -311
22 -134 114 -256 239 -318 62 -30 71 -32 181 -32 110 0 118 1 183 33 127 63
216 185 239 327 16 102 5 296 -20 368 -41 114 -139 215 -249 257 -76 29 -190
35 -263 15z"/>
<path d="M1599 3417 c-244 -184 -452 -343 -462 -355 -28 -30 -34 -98 -13 -136
23 -41 633 -518 677 -529 48 -12 112 15 140 59 25 42 23 107 -6 145 -10 13
-102 94 -204 179 -102 85 -192 168 -199 183 -26 53 -10 70 243 264 262 201
280 209 330 158 l25 -24 0 -401 0 -400 430 0 430 0 0 400 0 401 25 24 c50 51
68 43 330 -158 253 -194 269 -211 243 -264 -7 -15 -90 -92 -183 -170 -224
-188 -245 -210 -245 -265 0 -87 74 -149 158 -132 30 6 576 425 652 500 31 31
35 40 35 88 0 44 -5 60 -25 81 -14 15 -222 175 -462 356 l-438 329 -518 0
-519 0 -444 -333z m1188 141 c29 -32 34 -53 21 -88 -16 -48 -52 -60 -176 -60
-100 0 -110 -2 -129 -22 -56 -60 -12 -148 73 -148 82 0 187 -73 219 -152 41
-99 12 -225 -67 -293 -61 -51 -113 -65 -249 -65 -108 0 -120 2 -144 23 -39 33
-39 91 -1 123 25 22 36 24 131 24 57 0 115 4 130 10 30 11 54 60 47 96 -6 32
-47 64 -82 64 -133 0 -252 119 -253 254 0 74 21 127 71 180 62 65 97 76 253
76 128 0 137 -1 156 -22z"/>
<path d="M1853 3072 c-57 -42 -103 -79 -103 -82 0 -3 47 -45 105 -93 l105 -87
0 170 c0 93 -1 170 -2 170 -2 0 -49 -35 -105 -78z"/>
<path d="M3160 2980 l0 -171 103 86 c56 47 102 90 102 94 0 7 -154 131 -193
155 -9 5 -12 -35 -12 -164z"/>
<path d="M1297 2072 c-155 -386 -162 -412 -130 -479 19 -41 129 -122 255 -188
80 -42 296 -121 305 -112 2 2 44 197 94 433 49 236 94 445 98 465 l8 35 -86 0
c-109 -1 -140 13 -285 128 -60 47 -109 86 -110 86 0 0 -67 -166 -149 -368z"/>
<path d="M3564 2354 c-145 -115 -176 -129 -285 -128 -73 0 -86 -2 -82 -15 2
-9 46 -218 98 -465 52 -247 96 -450 98 -452 2 -3 53 11 112 31 193 63 414 195
448 268 32 67 25 93 -131 480 l-149 367 -109 -86z"/>
<path d="M2126 2378 c-2 -7 -9 -47 -15 -88 -6 -41 -14 -84 -17 -96 -5 -19 16
-30 231 -123 l237 -101 231 99 c184 79 232 104 231 118 -1 21 -25 172 -30 191
-5 18 -863 18 -868 0z"/>
<path d="M2050 1993 c0 -5 -76 -371 -170 -813 -93 -443 -170 -822 -170 -843 0
-171 237 -228 315 -76 12 22 157 548 424 1536 l9 32 -188 80 c-230 99 -220 95
-220 84z"/>
<path d="M2859 1914 l-197 -85 9 -32 c267 -990 412 -1514 424 -1536 18 -37 56
-66 102 -82 101 -33 213 49 213 158 0 21 -77 400 -170 842 -94 443 -170 809
-170 813 0 13 -5 11 -211 -78z"/>
<path d="M2512 1376 c-23 -85 -42 -159 -42 -165 0 -7 33 -11 90 -11 57 0 90 4
90 11 0 22 -84 319 -90 319 -4 0 -25 -69 -48 -154z"/>
</g>
</svg>
