<?xml version="1.0" standalone="no"?>
<!DOCTYPE svg PUBLIC "-//W3C//DTD SVG 20010904//EN"
 "http://www.w3.org/TR/2001/REC-SVG-20010904/DTD/svg10.dtd">
<svg version="1.0" xmlns="http://www.w3.org/2000/svg"
 width="512.000000pt" height="512.000000pt" viewBox="0 0 512.000000 512.000000"
 preserveAspectRatio="xMidYMid meet">

<g transform="translate(0.000000,512.000000) scale(0.100000,-0.100000)"
fill="#000000" stroke="none">
<path d="M1254 4786 c-57 -18 -125 -67 -157 -113 -50 -72 -57 -110 -57 -309
l0 -184 403 0 c583 0 539 18 940 -379 l278 -276 710 -3 709 -2 0 514 c0 496
-1 517 -21 570 -25 67 -86 133 -154 166 l-50 25 -1280 2 c-1023 1 -1288 -1
-1321 -11z"/>
<path d="M773 4001 c-107 -39 -185 -112 -237 -221 l-31 -65 -3 -357 -3 -357
34 10 c22 6 808 8 2059 7 l2025 -3 -9 40 c-14 61 -67 151 -115 196 -24 22 -74
55 -111 72 l-67 32 -840 5 -840 5 -45 24 c-28 14 -146 123 -310 286 -146 144
-279 272 -297 284 -18 12 -58 31 -89 41 -54 19 -86 20 -563 20 -468 -1 -510
-2 -558 -19z"/>
<path d="M544 2849 c-49 -14 -125 -69 -161 -117 -65 -86 -64 -62 -61 -963 l3
-814 28 -57 c34 -70 101 -131 173 -158 54 -20 68 -20 2034 -20 1966 0 1980 0
2034 20 72 27 139 88 173 158 l28 57 0 835 0 835 -28 57 c-30 62 -83 115 -149
150 l-43 23 -2000 2 c-1183 1 -2013 -2 -2031 -8z m1671 -234 c16 -15 25 -36
25 -55 0 -19 -9 -40 -25 -55 -21 -22 -33 -25 -100 -25 l-75 0 0 -293 c0 -281
-1 -294 -20 -315 -27 -28 -62 -37 -92 -21 -47 25 -47 28 -48 337 l0 292 -73 0
c-80 0 -111 16 -123 64 -6 26 17 81 38 89 7 3 116 6 241 6 l228 1 24 -25z
m472 -11 c56 -27 91 -63 126 -128 21 -38 22 -54 22 -236 0 -182 -1 -198 -22
-236 -56 -105 -141 -158 -253 -158 -112 0 -197 53 -253 158 -20 37 -22 59 -25
212 -4 188 2 225 47 296 74 117 226 156 358 92z m603 15 c116 -52 170 -165
136 -284 -20 -68 -66 -121 -131 -151 -42 -20 -66 -24 -152 -24 l-103 0 0 -135
c0 -131 -1 -137 -25 -160 -15 -16 -36 -25 -55 -25 -19 0 -40 9 -55 25 l-25 24
0 351 0 351 25 24 c24 24 28 25 182 25 137 0 164 -3 203 -21z m-1991 -869 c30
-15 46 -65 32 -99 -19 -43 -48 -51 -197 -51 -74 0 -143 -4 -153 -10 -30 -15
-46 -65 -32 -99 16 -37 49 -51 123 -51 80 0 130 -16 178 -58 102 -86 114 -232
29 -335 -58 -70 -93 -81 -267 -85 -171 -4 -203 3 -222 49 -15 34 1 83 31 99
10 6 79 10 153 10 150 0 178 8 197 52 10 24 9 35 -4 63 -18 39 -29 42 -137 48
-125 6 -204 65 -236 175 -34 117 32 247 147 288 41 15 332 18 358 4z m616 -15
c14 -13 25 -35 25 -49 0 -74 -31 -86 -223 -86 -106 0 -157 -4 -165 -12 -7 -7
-12 -40 -12 -80 l0 -68 173 0 c136 0 177 -3 194 -15 44 -31 37 -111 -13 -134
-15 -7 -88 -11 -189 -11 l-165 0 0 -68 c0 -40 5 -73 12 -80 8 -8 62 -12 175
-12 161 0 164 0 188 -25 40 -39 32 -96 -16 -120 -36 -19 -322 -21 -383 -3 -54
17 -109 73 -125 129 -9 32 -11 115 -9 286 l3 241 30 43 c17 23 50 53 74 66 41
22 55 23 223 23 177 0 179 0 203 -25z m468 9 c103 -35 183 -176 146 -258 -35
-76 -149 -42 -149 45 0 11 -11 31 -25 44 -21 22 -33 25 -95 25 -62 0 -74 -3
-95 -25 -25 -24 -25 -26 -25 -209 0 -101 3 -192 6 -201 23 -59 205 -59 228 0
3 9 6 28 6 41 0 35 42 74 80 74 94 0 107 -132 22 -230 -58 -69 -100 -85 -222
-85 -89 0 -111 3 -146 22 -53 28 -107 91 -122 142 -16 52 -16 411 0 463 16 56
89 133 141 151 57 21 191 21 250 1z m622 -3 c84 -38 134 -117 135 -211 0 -135
-65 -221 -187 -245 l-55 -11 116 -94 c68 -55 119 -104 123 -117 13 -55 -46
-114 -97 -98 -11 4 -83 56 -158 116 l-137 109 -3 -78 c-3 -105 -7 -119 -43
-138 -36 -18 -70 -13 -99 16 -19 19 -20 35 -20 370 l0 351 25 24 c24 25 27 25
192 25 141 0 174 -3 208 -19z m710 -6 c14 -13 25 -35 25 -49 0 -74 -31 -86
-223 -86 -106 0 -157 -4 -165 -12 -7 -7 -12 -40 -12 -80 l0 -68 173 0 c136 0
177 -3 194 -15 44 -31 37 -111 -13 -134 -15 -7 -88 -11 -189 -11 l-165 0 0
-68 c0 -40 5 -73 12 -80 8 -8 62 -12 175 -12 161 0 164 0 188 -25 40 -39 32
-96 -16 -120 -36 -19 -322 -21 -383 -3 -54 17 -109 73 -125 129 -9 32 -11 115
-9 286 l3 241 30 43 c17 23 50 53 74 66 41 22 55 23 223 23 177 0 179 0 203
-25z m592 10 c44 -31 37 -111 -13 -134 -14 -6 -54 -11 -89 -11 l-65 0 0 -285
c0 -190 -4 -292 -11 -309 -26 -55 -112 -55 -138 0 -7 17 -11 119 -11 309 l0
285 -65 0 c-69 0 -118 17 -129 45 -12 33 -5 66 19 90 l24 25 228 0 c185 0 233
-3 250 -15z"/>
<path d="M2499 2457 c-56 -37 -60 -54 -57 -230 l3 -159 32 -29 c58 -51 108
-51 166 0 l32 29 3 159 c2 114 -1 165 -10 183 -18 33 -75 70 -108 70 -15 0
-42 -10 -61 -23z"/>
<path d="M3040 2400 l0 -80 95 0 c88 0 98 2 120 25 16 15 25 36 25 55 0 19 -9
40 -25 55 -22 23 -32 25 -120 25 l-95 0 0 -80z"/>
<path d="M2740 1520 l0 -80 100 0 c118 0 140 12 140 80 0 68 -22 80 -140 80
l-100 0 0 -80z"/>
<path d="M553 525 c29 -51 92 -116 148 -148 102 -60 5 -57 1859 -57 1854 0
1757 -3 1859 57 54 32 118 96 148 149 l21 39 -2028 0 -2028 0 21 -40z"/>
</g>
</svg>
